<svg width="360" height="640" viewBox="0 0 360 640" fill="none" xmlns="http://www.w3.org/2000/svg">
<rect width="360" height="639.983" fill="#1B2228"/>
<path d="M158.994 243.83L159.777 243.299L211.945 207.478V191.058H148.055V228.774L178.547 208.084H164.855L155.861 214.172V208.084V198.712H167.078H181.301H204.316V203.386L201.032 205.634L200.249 206.19L148.055 242.011V258.481H211.945V220.715L181.478 241.404H195.196L204.164 235.291V241.404V250.751H192.973H178.724H155.709V246.078L158.994 243.83Z" fill="#FFC506"/>
<path d="M139.927 290.08V288.427L146.512 279.207H139.915V276.911H150.017V278.564L143.426 287.784H150.03V290.08H139.927Z" fill="#FFC506"/>
<path d="M156.629 290.273C155.611 290.273 154.734 290.067 154 289.656C153.27 289.24 152.707 288.653 152.312 287.894C151.917 287.131 151.719 286.228 151.719 285.187C151.719 284.171 151.917 283.279 152.312 282.512C152.707 281.744 153.263 281.146 153.981 280.718C154.702 280.289 155.548 280.075 156.519 280.075C157.172 280.075 157.78 280.18 158.342 280.39C158.909 280.596 159.403 280.906 159.824 281.322C160.249 281.738 160.58 282.261 160.816 282.891C161.053 283.517 161.171 284.25 161.171 285.09V285.843H152.815V284.145H158.587C158.587 283.751 158.501 283.401 158.33 283.097C158.158 282.793 157.919 282.555 157.614 282.383C157.314 282.207 156.964 282.12 156.564 282.12C156.148 282.12 155.778 282.216 155.456 282.409C155.138 282.598 154.889 282.853 154.709 283.174C154.528 283.491 154.436 283.845 154.432 284.235V285.849C154.432 286.338 154.522 286.76 154.702 287.116C154.887 287.472 155.147 287.746 155.482 287.939C155.817 288.132 156.214 288.228 156.674 288.228C156.979 288.228 157.258 288.185 157.511 288.1C157.765 288.014 157.982 287.885 158.162 287.714C158.342 287.542 158.48 287.332 158.574 287.084L161.113 287.251C160.984 287.859 160.72 288.391 160.32 288.845C159.925 289.296 159.414 289.647 158.787 289.9C158.164 290.149 157.445 290.273 156.629 290.273Z" fill="#FFC506"/>
<path d="M165.706 284.37V290.08H162.962V280.203H165.578V281.946H165.694C165.913 281.371 166.28 280.917 166.795 280.583C167.311 280.244 167.936 280.075 168.67 280.075C169.357 280.075 169.957 280.225 170.468 280.525C170.979 280.825 171.376 281.254 171.66 281.811C171.943 282.364 172.085 283.024 172.085 283.791V290.08H169.34V284.28C169.344 283.676 169.19 283.204 168.876 282.865C168.563 282.522 168.131 282.351 167.581 282.351C167.212 282.351 166.885 282.43 166.602 282.589C166.323 282.748 166.104 282.979 165.945 283.283C165.79 283.583 165.711 283.946 165.706 284.37Z" fill="#FFC506"/>
<path d="M177.27 290.08L173.494 276.911H176.542L178.726 286.061H178.835L181.245 276.911H183.854L186.257 286.08H186.373L188.557 276.911H191.605L187.829 290.08H185.11L182.598 281.47H182.495L179.988 290.08H177.27Z" fill="white"/>
<path d="M194.805 290.266C194.174 290.266 193.611 290.157 193.117 289.939C192.623 289.716 192.232 289.388 191.945 288.955C191.661 288.517 191.519 287.973 191.519 287.321C191.519 286.773 191.62 286.312 191.822 285.939C192.024 285.566 192.299 285.266 192.647 285.039C192.995 284.812 193.39 284.64 193.832 284.524C194.279 284.409 194.747 284.327 195.237 284.28C195.812 284.22 196.276 284.164 196.628 284.113C196.981 284.057 197.236 283.976 197.395 283.869C197.554 283.761 197.633 283.603 197.633 283.393V283.354C197.633 282.947 197.505 282.632 197.247 282.409C196.993 282.186 196.633 282.075 196.165 282.075C195.671 282.075 195.278 282.184 194.986 282.402C194.693 282.617 194.5 282.887 194.406 283.213L191.867 283.007C191.996 282.407 192.249 281.888 192.627 281.451C193.005 281.009 193.493 280.671 194.09 280.435C194.691 280.195 195.387 280.075 196.177 280.075C196.727 280.075 197.253 280.139 197.756 280.268C198.263 280.396 198.712 280.596 199.102 280.866C199.498 281.136 199.809 281.483 200.037 281.907C200.264 282.327 200.378 282.831 200.378 283.418V290.08H197.775V288.71H197.698C197.539 289.019 197.326 289.291 197.06 289.527C196.794 289.759 196.474 289.941 196.1 290.074C195.726 290.202 195.295 290.266 194.805 290.266ZM195.591 288.376C195.995 288.376 196.351 288.297 196.661 288.138C196.97 287.975 197.213 287.757 197.389 287.482C197.565 287.208 197.653 286.897 197.653 286.55V285.502C197.567 285.557 197.449 285.609 197.298 285.656C197.152 285.699 196.987 285.74 196.802 285.778C196.618 285.813 196.433 285.845 196.248 285.875C196.064 285.9 195.896 285.924 195.746 285.945C195.424 285.993 195.142 286.068 194.902 286.171C194.661 286.273 194.474 286.413 194.341 286.588C194.208 286.76 194.142 286.974 194.142 287.231C194.142 287.604 194.277 287.889 194.547 288.087C194.822 288.28 195.17 288.376 195.591 288.376Z" fill="white"/>
<path d="M205.252 276.911V290.08H202.507V276.911H205.252Z" fill="white"/>
<path d="M210.195 276.911V290.08H207.451V276.911H210.195Z" fill="white"/>
<path d="M220.628 283.02L218.115 283.174C218.072 282.96 217.98 282.767 217.838 282.595C217.696 282.42 217.509 282.28 217.277 282.177C217.05 282.07 216.777 282.017 216.459 282.017C216.034 282.017 215.675 282.107 215.383 282.287C215.091 282.462 214.945 282.698 214.945 282.994C214.945 283.23 215.04 283.429 215.229 283.592C215.418 283.755 215.742 283.886 216.201 283.984L217.993 284.344C218.955 284.542 219.672 284.859 220.144 285.296C220.617 285.733 220.853 286.308 220.853 287.019C220.853 287.667 220.662 288.235 220.28 288.723C219.902 289.212 219.382 289.593 218.721 289.868C218.063 290.138 217.305 290.273 216.446 290.273C215.136 290.273 214.093 290.001 213.315 289.456C212.542 288.908 212.089 288.162 211.956 287.219L214.655 287.077C214.737 287.476 214.934 287.78 215.248 287.99C215.561 288.196 215.963 288.299 216.453 288.299C216.934 288.299 217.32 288.207 217.612 288.022C217.909 287.834 218.059 287.592 218.063 287.296C218.059 287.047 217.954 286.844 217.748 286.685C217.542 286.522 217.224 286.398 216.794 286.312L215.08 285.971C214.114 285.778 213.395 285.444 212.922 284.968C212.454 284.492 212.22 283.886 212.22 283.148C212.22 282.514 212.392 281.967 212.735 281.509C213.083 281.05 213.571 280.696 214.198 280.448C214.829 280.199 215.568 280.075 216.414 280.075C217.664 280.075 218.648 280.338 219.365 280.866C220.086 281.393 220.507 282.111 220.628 283.02Z" fill="white"/>
</svg>
